<?xml version="1.0" encoding="utf-8"?>
<!-- Svg Vector Icons : http://www.onlinewebfonts.com/icon -->
<!DOCTYPE svg PUBLIC "-//W3C//DTD SVG 1.1//EN" "http://www.w3.org/Graphics/SVG/1.1/DTD/svg11.dtd">
<svg version="1.1" xmlns="http://www.w3.org/2000/svg" xmlns:xlink="http://www.w3.org/1999/xlink" x="0px" y="0px" viewBox="0 0 1000 1000" enable-background="new 0 0 1000 1000" xml:space="preserve">
<metadata> Svg Vector Icons : http://www.onlinewebfonts.com/icon </metadata>
<g><path fill="#C0C0C0" stroke="#040000" stroke-width="2" stroke-miterlimit="10" d="M776.2,900.9H223.8C108,900.9,10,802.9,10,687.1V312.9c0-115.8,98-213.8,213.8-213.8h552.4c115.8,0,213.8,98,213.8,213.8v374.2C990,802.9,892,900.9,776.2,900.9z"/><line fill="none" stroke="#040000" stroke-width="2" stroke-miterlimit="10" x1="990" y1="410.9" x2="633.6" y2="410.9"/><line fill="none" stroke="#040000" stroke-width="2" stroke-miterlimit="10" x1="990" y1="589.1" x2="633.6" y2="589.1"/><line fill="none" stroke="#040000" stroke-width="2" stroke-miterlimit="10" x1="366.4" y1="410.9" x2="10" y2="410.9"/><line fill="none" stroke="#040000" stroke-width="2" stroke-miterlimit="10" x1="366.4" y1="589.1" x2="10" y2="589.1"/><line fill="none" stroke="#040000" stroke-width="2" stroke-miterlimit="10" x1="678.2" y1="410.9" x2="678.2" y2="589.1"/><line fill="none" stroke="#040000" stroke-width="2" stroke-miterlimit="10" x1="321.8" y1="410.9" x2="321.8" y2="589.1"/><path fill="none" stroke="#040000" stroke-width="2" stroke-miterlimit="10" d="M255,589.1c84.6,0,155.9,71.3,155.9,155.9S339.6,900.9,255,900.9"/><path fill="none" stroke="#040000" stroke-width="2" stroke-miterlimit="10" d="M745,589.1c-84.7,0-155.9,71.3-155.9,155.9S660.3,900.9,745,900.9"/><path fill="none" stroke="#040000" stroke-width="2" stroke-linejoin="round" stroke-miterlimit="10" d="M678.2,232.7c-49,0-89.1,40.1-89.1,89.1s40.1,89.1,89.1,89.1"/><path fill="none" stroke="#040000" stroke-width="2" stroke-linejoin="round" stroke-miterlimit="10" d="M321.8,410.9c49,0,89.1-40.1,89.1-89.1s-40.1-89.1-89.1-89.1h-89.1"/></g>
</svg>