<svg id="Ebene_1" data-name="Ebene 1" xmlns="http://www.w3.org/2000/svg" viewBox="0 0 97.6 55.3"><defs><style>.cls-1{fill: 	#A9A9A9}</style></defs><title>dkb-logo blau</title><path class="cls-1" d="M0,0H14.2A17.77,17.77,0,0,1,32,18.3,18.39,18.39,0,0,1,14.2,36.6H0ZM21.8,18.3c0-7.6-6.1-9.1-11.7-9.1V27.5c5.6-.1,11.7-1.6,11.7-9.2"/><polygon class="cls-1" points="36 0 46.1 0 46.1 13.7 46.2 13.7 54.2 0 65.9 0 55.2 16.7 66.9 36.5 55.2 36.5 46.2 20.8 46.1 20.8 46.1 36.5 36 36.5 36 0"/><path class="cls-1" d="M69.7,0H84.4C91,0,95.6,4,95.6,9.1c0,3.4-1.2,6.4-4,7.3v.1a9.89,9.89,0,0,1,6,8.9c0,7.3-5.6,11.2-11.7,11.2H69.7ZM82.9,14.6a3,3,0,0,0,3.2-3.2,3.1,3.1,0,0,0-3.2-3.2H79.8v6.4Zm.9,13.2c2,0,3.2-1.6,3.2-3.7a3.69,3.69,0,0,0-3.7-3.7H79.7v7.3h4.1Z"/><path class="cls-1" d="M3.5,55.1H0V43.8H3.4A5.45,5.45,0,0,1,9,49.4a5.4,5.4,0,0,1-5.5,5.7M3,45.8H2.1v7.3H3a3.66,3.66,0,1,0,0-7.3"/><path class="cls-1" d="M15.1,55.1v-.6h0a2.79,2.79,0,0,1-2.2.9c-1.6,0-3-1.3-3-3.5s1.4-3.5,3-3.5a2.5,2.5,0,0,1,2.2.9h0v-.6h2v6.6l-2-.2Zm-1.6-5a1.7,1.7,0,0,0,0,3.4,1.7,1.7,0,0,0,0-3.4"/><path class="cls-1" d="M20.7,55.3a3.44,3.44,0,0,1-2.5-1.1L19,53a2.72,2.72,0,0,0,1.7.8c.6,0,.8-.2.8-.6,0-1.1-3.1-.7-3.1-3.1,0-1.3,1.1-1.9,2.4-1.9a3.43,3.43,0,0,1,2.5.8l-.8,1.1a2.69,2.69,0,0,0-1.5-.5c-.3,0-.7.1-.7.5,0,.8,3.2.7,3.2,3.1,0,1.6-1.2,2.1-2.8,2.1"/><polygon class="cls-1" points="32.9 55.1 30.8 52.3 30.8 52.3 30.8 55.1 28.8 55.1 28.8 43.7 30.8 43.7 30.8 50.8 30.8 50.8 32.6 48.5 34.9 48.5 32.4 51.6 35.2 55.1 32.9 55.1"/><path class="cls-1" d="M40.5,55.1v-.6h0a2.79,2.79,0,0,1-2.2.9c-1.6,0-3-1.3-3-3.5s1.4-3.5,3-3.5a2.5,2.5,0,0,1,2.2.9h0v-.6h2v6.6l-2-.2Zm-1.6-5a1.7,1.7,0,0,0,0,3.4,1.7,1.7,0,0,0,0-3.4"/><path class="cls-1" d="M48.6,55.1V51.5c0-.9-.3-1.4-1.2-1.4a1.29,1.29,0,0,0-1.3,1.4v3.6h-2V48.5h2v.6h0a2.72,2.72,0,0,1,2.1-.9c1.5,0,2.4.9,2.4,2.6V55l-2,.1Z"/><path class="cls-1" d="M56.6,55.1V51.5c0-.9-.3-1.4-1.2-1.4a1.29,1.29,0,0,0-1.3,1.4v3.6h-2V48.5h2v.6h0a2.72,2.72,0,0,1,2.1-.9c1.5,0,2.4.9,2.4,2.6V55l-2,.1Z"/><path class="cls-1" d="M68,55.1H64.3V43.8h3.4c1.9,0,3.4,1.1,3.4,2.8a2.6,2.6,0,0,1-1.4,2.5,2.81,2.81,0,0,1,1.9,2.7A3.29,3.29,0,0,1,68,55.1m-.4-9.5H66.4v2.7h1.2c.8,0,1.6-.4,1.6-1.3a1.52,1.52,0,0,0-1.6-1.4m.1,4.5H66.4v3.1h1.3a1.5,1.5,0,0,0,1.7-1.6c0-.9-.6-1.5-1.7-1.5"/><path class="cls-1" d="M77.9,55.1v-.6h0a2.79,2.79,0,0,1-2.2.9c-1.6,0-3-1.3-3-3.5s1.4-3.5,3-3.5a2.5,2.5,0,0,1,2.2.9h0v-.6h2v6.6l-2-.2Zm-1.6-5a1.7,1.7,0,0,0,0,3.4,1.7,1.7,0,0,0,0-3.4"/><path class="cls-1" d="M86,55.1V51.5c0-.9-.3-1.4-1.2-1.4a1.29,1.29,0,0,0-1.3,1.4v3.6h-2V48.5h2v.6h0a2.72,2.72,0,0,1,2.1-.9c1.5,0,2.4.9,2.4,2.6V55l-2,.1Z"/><polygon class="cls-1" points="93.5 55.1 91.5 52.3 91.4 52.3 91.4 55.1 89.5 55.1 89.5 43.7 91.4 43.7 91.4 50.8 91.5 50.8 93.2 48.5 95.6 48.5 93.1 51.6 95.9 55.1 93.5 55.1"/></svg>